<?xml version="1.0" encoding="UTF-8"?>
<!DOCTYPE svg PUBLIC "-//W3C//DTD SVG 1.1//EN" "http://www.w3.org/Graphics/SVG/1.1/DTD/svg11.dtd">
<!-- Creator: CorelDRAW -->
<svg xmlns="http://www.w3.org/2000/svg" xml:space="preserve" width="53.2964mm" height="53.2964mm" version="1.1" shape-rendering="geometricPrecision" text-rendering="geometricPrecision" image-rendering="optimizeQuality" fill-rule="evenodd" clip-rule="evenodd"
viewBox="0 0 53033.1 53033.1"
 xmlns:xlink="http://www.w3.org/1999/xlink"
 xmlns:xodm="http://www.corel.com/coreldraw/odm/2003">
 <g id="Layer_x0020_1">
  <metadata id="CorelCorpID_0Corel-Layer"/>
  <g id="_2151199548384">
   <rect fill="#22386E" stroke="#22386E" stroke-width="263.2" stroke-miterlimit="22.9256" x="131.6" y="131.5" width="52769.9" height="52769.9"/>
   <path fill="none" stroke="#A0AEC0" stroke-width="263.3" stroke-miterlimit="22.9256" d="M26376.6 3840.8c11600.1,0 21003.8,10075.5 21003.8,22504.2 0,12428.6 -9403.7,22504.2 -21003.8,22504.2 -11600,0 -21003.7,-10075.6 -21003.7,-22504.2 0,-12428.7 9403.7,-22504.2 21003.7,-22504.2z"/>
   <path fill="none" stroke="#A0AEC0" stroke-width="263.3" stroke-miterlimit="22.9256" d="M26376.6 7604.4c9660,0 17491.2,8390.3 17491.2,18740.6 0,10350.1 -7831.1,18740.6 -17491.2,18740.6 -9659.9,0 -17491.2,-8390.4 -17491.2,-18740.6 0,-10350.2 7831.2,-18740.6 17491.2,-18740.6z"/>
   <path fill="#22386E" stroke="#A0AEC0" stroke-width="263.2" stroke-miterlimit="22.9256" d="M13072.3 11207.5l26804.3 0c2813.4,0 2247.2,-464.6 2247.2,2690.6l0 22799.1c0,3685.7 672.4,3251 -2626.5,3420.5l-26488.2 0c-2945.1,0 -2363,387.3 -2363,-2880.9l0 -23203.9c0,-3263.1 -553.4,-2825.5 2426.1,-2825.5z"/>
   <path fill="none" stroke="#A0AEC0" stroke-width="263.2" stroke-miterlimit="22.9256" d="M14174.2 20502.4l3092.8 0c324.6,0 259.2,-271.8 259.2,1573.9l0 13336.2c0,2156 77.6,1901.7 -303,2000.9l-3056.3 0c-339.8,0 -272.6,226.6 -272.6,-1685.2l0 -13572.9c0,-1908.8 -63.9,-1652.8 279.9,-1652.8z"/>
   <path fill="none" stroke="#A0AEC0" stroke-width="263.2" stroke-miterlimit="22.9256" d="M19079.2 18427.5l3092.7 0c324.7,0 259.3,-305.1 259.3,1766.9l0 14971.9c0,2420.4 77.6,2134.9 -303,2246.2l-3056.3 0c-339.8,0 -272.6,254.3 -272.6,-1891.9l0 -15237.6c0,-2142.9 -63.9,-1855.5 279.9,-1855.5z"/>
   <path fill="none" stroke="#A0AEC0" stroke-width="263.2" stroke-miterlimit="22.9256" d="M24112.9 18040.1l3092.8 0c324.6,0 259.3,-307.2 259.3,1778.9l0 15073.8c0,2436.9 77.5,2149.4 -303.1,2261.5l-3056.3 0c-339.8,0 -272.6,256.1 -272.6,-1904.6l0 -15341.4c0,-2157.4 -63.8,-1868 279.9,-1868z"/>
   <path fill="none" stroke="#A0AEC0" stroke-width="263.2" stroke-miterlimit="22.9256" d="M29147.2 22167.2l3092.8 0c324.6,0 259.2,-240.9 259.2,1395.1l0 11820.6c0,1910.9 77.6,1685.5 -303,1773.4l-3056.3 0c-339.8,0 -272.6,200.9 -272.6,-1493.6l0 -12030.6c0,-1691.8 -63.9,-1464.9 279.9,-1464.9z"/>
   <path fill="none" stroke="#A0AEC0" stroke-width="263.2" stroke-miterlimit="22.9256" d="M34181 18298.4l3092.7 0c324.6,0 259.3,-303.1 259.3,1754.8l0 14870.1c0,2404 77.5,2120.4 -303.1,2230.9l-3056.3 0c-339.8,0 -272.6,252.6 -272.6,-1879l0 -15134c0,-2128.3 -63.8,-1842.9 280,-1842.9z"/>
   <path fill="#22386E" stroke="#A0AEC0" stroke-width="263.2" stroke-miterlimit="22.9256" d="M13924.7 12737.6l24849.1 0c2608.2,0 2083.3,-72.4 2083.3,419.5l0 3554.8c0,574.6 623.3,506.9 -2434.9,533.4l-24556 0c-2730.2,0 -2190.6,60.4 -2190.6,-449.2l0 -3617.8c0,-508.8 -513.1,-440.6 2249.1,-440.6z"/>
   <path fill="#22386E" stroke="#A0AEC0" stroke-width="263.2" stroke-miterlimit="22.9256" d="M25792.3 30551.5l4673.7 -11914.9 5221.9 4305.2 7563.2 -13224.2 -2211.4 -1862.2 8030.9 -3026.3 -1280.2 8380.1 -2095 -1280.1c-2997.2,5589.5 -5994.4,11179.1 -8991.8,16768.6l-4858.7 -3383.9 -3814.3 9438.6 -6954 -344.9 -12742.8 16512.1 11132.6 -20373.7 6325.9 5.5z"/>
  </g>
 </g>
</svg>
